<svg width="100" height="100" viewBox="0 0 100 100" fill="none" xmlns="http://www.w3.org/2000/svg">
  <rect width="100" height="100" fill="#F7F7F7"/>
  <g opacity="0.2" stroke="#D0D0D0" stroke-width="1" fill="none">
    <!-- Dense Grid of Small Circles -->
    <circle cx="2" cy="2" r="0.5"/>
    <circle cx="4" cy="4" r="0.5"/>
    <circle cx="6" cy="6" r="0.5"/>
    <circle cx="8" cy="8" r="0.5"/>
    <circle cx="10" cy="10" r="0.5"/>
    <circle cx="12" cy="12" r="0.5"/>
    <circle cx="14" cy="14" r="0.5"/>
    <circle cx="16" cy="16" r="0.5"/>
    <circle cx="18" cy="18" r="0.5"/>
    <circle cx="20" cy="20" r="0.5"/>
    <circle cx="22" cy="22" r="0.5"/>
    <circle cx="24" cy="24" r="0.5"/>
    <circle cx="26" cy="26" r="0.5"/>
    <circle cx="28" cy="28" r="0.5"/>
    <circle cx="30" cy="30" r="0.5"/>
    <circle cx="32" cy="32" r="0.5"/>
    <circle cx="34" cy="34" r="0.5"/>
    <circle cx="36" cy="36" r="0.5"/>
    <circle cx="38" cy="38" r="0.5"/>
    <circle cx="40" cy="40" r="0.5"/>
    <circle cx="42" cy="42" r="0.5"/>
    <circle cx="44" cy="44" r="0.5"/>
    <circle cx="46" cy="46" r="0.5"/>
    <circle cx="48" cy="48" r="0.5"/>
    <circle cx="50" cy="50" r="0.5"/>
    <circle cx="52" cy="52" r="0.5"/>
    <circle cx="54" cy="54" r="0.5"/>
    <circle cx="56" cy="56" r="0.5"/>
    <circle cx="58" cy="58" r="0.5"/>
    <circle cx="60" cy="60" r="0.5"/>
    <circle cx="62" cy="62" r="0.5"/>
    <circle cx="64" cy="64" r="0.5"/>
    <circle cx="66" cy="66" r="0.5"/>
    <circle cx="68" cy="68" r="0.5"/>
    <circle cx="70" cy="70" r="0.5"/>
    <circle cx="72" cy="72" r="0.5"/>
    <circle cx="74" cy="74" r="0.5"/>
    <circle cx="76" cy="76" r="0.5"/>
    <circle cx="78" cy="78" r="0.5"/>
    <circle cx="80" cy="80" r="0.5"/>
    <circle cx="82" cy="82" r="0.5"/>
    <circle cx="84" cy="84" r="0.5"/>
    <circle cx="86" cy="86" r="0.5"/>
    <circle cx="88" cy="88" r="0.5"/>
    <circle cx="90" cy="90" r="0.5"/>
    <circle cx="92" cy="92" r="0.5"/>
    <circle cx="94" cy="94" r="0.5"/>
    <circle cx="96" cy="96" r="0.5"/>
    <circle cx="98" cy="98" r="0.5"/>
    <!-- Dense Grid of Small Squares -->
    <rect x="1" y="1" width="1" height="1" fill="#D0D0D0"/>
    <rect x="3" y="3" width="1" height="1" fill="#D0D0D0"/>
    <rect x="5" y="5" width="1" height="1" fill="#D0D0D0"/>
    <rect x="7" y="7" width="1" height="1" fill="#D0D0D0"/>
    <rect x="9" y="9" width="1" height="1" fill="#D0D0D0"/>
    <rect x="11" y="11" width="1" height="1" fill="#D0D0D0"/>
    <rect x="13" y="13" width="1" height="1" fill="#D0D0D0"/>
    <rect x="15" y="15" width="1" height="1" fill="#D0D0D0"/>
    <rect x="17" y="17" width="1" height="1" fill="#D0D0D0"/>
    <rect x="19" y="19" width="1" height="1" fill="#D0D0D0"/>
    <rect x="21" y="21" width="1" height="1" fill="#D0D0D0"/>
    <rect x="23" y="23" width="1" height="1" fill="#D0D0D0"/>
    <rect x="25" y="25" width="1" height="1" fill="#D0D0D0"/>
    <rect x="27" y="27" width="1" height="1" fill="#D0D0D0"/>
    <rect x="29" y="29" width="1" height="1" fill="#D0D0D0"/>
    <rect x="31" y="31" width="1" height="1" fill="#D0D0D0"/>
    <rect x="33" y="33" width="1" height="1" fill="#D0D0D0"/>
    <rect x="35" y="35" width="1" height="1" fill="#D0D0D0"/>
    <rect x="37" y="37" width="1" height="1" fill="#D0D0D0"/>
    <rect x="39" y="39" width="1" height="1" fill="#D0D0D0"/>
    <rect x="41" y="41" width="1" height="1" fill="#D0D0D0"/>
    <rect x="43" y="43" width="1" height="1" fill="#D0D0D0"/>
    <rect x="45" y="45" width="1" height="1" fill="#D0D0D0"/>
    <rect x="47" y="47" width="1" height="1" fill="#D0D0D0"/>
    <rect x="49" y="49" width="1" height="1" fill="#D0D0D0"/>
    <rect x="51" y="51" width="1" height="1" fill="#D0D0D0"/>
    <rect x="53" y="53" width="1" height="1" fill="#D0D0D0"/>
    <rect x="55" y="55" width="1" height="1" fill="#D0D0D0"/>
    <rect x="57" y="57" width="1" height="1" fill="#D0D0D0"/>
    <rect x="59" y="59" width="1" height="1" fill="#D0D0D0"/>
    <rect x="61" y="61" width="1" height="1" fill="#D0D0D0"/>
    <rect x="63" y="63" width="1" height="1" fill="#D0D0D0"/>
    <rect x="65" y="65" width="1" height="1" fill="#D0D0D0"/>
    <rect x="67" y="67" width="1" height="1" fill="#D0D0D0"/>
    <rect x="69" y="69" width="1" height="1" fill="#D0D0D0"/>
    <rect x="71" y="71" width="1" height="1" fill="#D0D0D0"/>
    <rect x="73" y="73" width="1" height="1" fill="#D0D0D0"/>
    <rect x="75" y="75" width="1" height="1" fill="#D0D0D0"/>
    <rect x="77" y="77" width="1" height="1" fill="#D0D0D0"/>
    <rect x="79" y="79" width="1" height="1" fill="#D0D0D0"/>
    <rect x="81" y="81" width="1" height="1" fill="#D0D0D0"/>
    <rect x="83" y="83" width="1" height="1" fill="#D0D0D0"/>
    <rect x="85" y="85" width="1" height="1" fill="#D0D0D0"/>
    <rect x="87" y="87" width="1" height="1" fill="#D0D0D0"/>
    <rect x="89" y="89" width="1" height="1" fill="#D0D0D0"/>
    <rect x="91" y="91" width="1" height="1" fill="#D0D0D0"/>
    <rect x="93" y="93" width="1" height="1" fill="#D0D0D0"/>
    <rect x="95" y="95" width="1" height="1" fill="#D0D0D0"/>
    <rect x="97" y="97" width="1" height="1" fill="#D0D0D0"/>
    <rect x="99" y="99" width="1" height="1" fill="#D0D0D0"/>
    <!-- Dense Grid of Triangles and Icons -->
    <path d="M2 12 L4 16 L0 16 Z" fill="#D0D0D0"/>
    <path d="M6 18 L8 22 L4 22 Z" fill="#D0D0D0"/>
    <path d="M10 24 L12 28 L8 28 Z" fill="#D0D0D0"/>
    <path d="M14 30 L16 34 L12 34 Z" fill="#D0D0D0"/>
    <path d="M18 36 L20 40 L16 40 Z" fill="#D0D0D0"/>
    <path d="M22 42 L24 46 L20 46 Z" fill="#D0D0D0"/>
    <path d="M26 48 L28 52 L24 52 Z" fill="#D0D0D0"/>
    <path d="M30 54 L32 58 L28 58 Z" fill="#D0D0D0"/>
    <path d="M34 60 L36 64 L32 64 Z" fill="#D0D0D0"/>
    <path d="M38 66 L40 70 L36 70 Z" fill="#D0D0D0"/>
    <path d="M42 72 L44 76 L40 76 Z" fill="#D0D0D0"/>
    <path d="M46 78 L48 82 L44 82 Z" fill="#D0D0D0"/>
    <path d="M50 84 L52 88 L48 88 Z" fill="#D0D0D0"/>
    <path d="M54 90 L56 94 L52 94 Z" fill="#D0D0D0"/>
    <path d="M58 96 L60 100 L56 100 Z" fill="#D0D0D0"/>
    <path d="M62 2 L64 6 L60 6 Z" fill="#D0D0D0"/>
    <path d="M66 8 L68 12 L64 12 Z" fill="#D0D0D0"/>
    <path d="M70 14 L72 18 L68 18 Z" fill="#D0D0D0"/>
    <path d="M74 20 L76 24 L72 24 Z" fill="#D0D0D0"/>
    <path d="M78 26 L80 30 L76 30 Z" fill="#D0D0D0"/>
    <path d="M82 32 L84 36 L80 36 Z" fill="#D0D0D0"/>
    <path d="M86 38 L88 42 L84 42 Z" fill="#D0D0D0"/>
    <path d="M90 44 L92 48 L88 48 Z" fill="#D0D0D0"/>
    <path d="M94 50 L96 54 L92 54 Z" fill="#D0D0D0"/>
    <path d="M98 56 L100 60 L96 60 Z" fill="#D0D0D0"/>
    <!-- Continue with more items to approach 500-600 -->
    <path d="M3 13 L5 17 L1 17 Z" fill="#D0D0D0"/>
    <path d="M7 19 L9 23 L5 23 Z" fill="#D0D0D0"/>
    <path d="M11 25 L13 29 L9 29 Z" fill="#D0D0D0"/>
    <path d="M15 31 L17 35 L13 35 Z" fill="#D0D0D0"/>
    <path d="M19 37 L21 41 L17 41 Z" fill="#D0D0D0"/>
    <path d="M23 43 L25 47 L21 47 Z" fill="#D0D0D0"/>
    <path d="M27 49 L29 53 L25 53 Z" fill="#D0D0D0"/>
    <path d="M31 55 L33 59 L29 59 Z" fill="#D0D0D0"/>
    <path d="M35 61 L37 65 L33 65 Z" fill="#D0D0D0"/>
    <path d="M39 67 L41 71 L37 71 Z" fill="#D0D0D0"/>
    <path d="M43 73 L45 77 L41 77 Z" fill="#D0D0D0"/>
    <path d="M47 79 L49 83 L45 83 Z" fill="#D0D0D0"/>
    <path d="M51 85 L53 89 L49 89 Z" fill="#D0D0D0"/>
    <path d="M55 91 L57 95 L53 95 Z" fill="#D0D0D0"/>
    <path d="M59 97 L61 101 L57 101 Z" fill="#D0D0D0"/>
    <path d="M63 3 L65 7 L61 7 Z" fill="#D0D0D0"/>
    <path d="M67 9 L69 13 L65 13 Z" fill="#D0D0D0"/>
    <path d="M71 15 L73 19 L69 19 Z" fill="#D0D0D0"/>
    <path d="M75 21 L77 25 L73 25 Z" fill="#D0D0D0"/>
    <path d="M79 27 L81 31 L77 31 Z" fill="#D0D0D0"/>
    <path d="M83 33 L85 37 L81 37 Z" fill="#D0D0D0"/>
    <path d="M87 39 L89 43 L85 43 Z" fill="#D0D0D0"/>
    <path d="M91 45 L93 49 L89 49 Z" fill="#D0D0D0"/>
    <path d="M95 51 L97 55 L93 55 Z" fill="#D0D0D0"/>
    <path d="M99 57 L101 61 L97 61 Z" fill="#D0D0D0"/>
    <!-- Additional Dense Patterns -->
    <path d="M1 21 Q3 19 5 21" />
    <path d="M6 23 Q8 21 10 23" />
    <path d="M11 25 Q13 23 15 25" />
    <path d="M16 27 Q18 25 20 27" />
    <path d="M21 29 Q23 27 25 29" />
    <path d="M26 31 Q28 29 30 31" />
    <path d="M31 33 Q33 31 35 33" />
    <path d="M36 35 Q38 33 40 35" />
    <path d="M41 37 Q43 35 45 37" />
    <path d="M46 39 Q48 37 50 39" />
    <path d="M51 41 Q53 39 55 41" />
    <path d="M56 43 Q58 41 60 43" />
    <path d="M61 45 Q63 43 65 45" />
    <path d="M66 47 Q68 45 70 47" />
    <path d="M71 49 Q73 47 75 49" />
    <path d="M76 51 Q78 49 80 51" />
    <path d="M81 53 Q83 51 85 53" />
    <path d="M86 55 Q88 53 90 55" />
    <path d="M91 57 Q93 55 95 57" />
    <path d="M96 59 Q98 57 100 59" />
    <!-- Continue with more to approach 500-600 -->
    <path d="M2 22 Q4 20 6 22" />
    <path d="M7 24 Q9 22 11 24" />
    <path d="M12 26 Q14 24 16 26" />
    <path d="M17 28 Q19 26 21 28" />
    <path d="M22 30 Q24 28 26 30" />
    <path d="M27 32 Q29 30 31 32" />
    <path d="M32 34 Q34 32 36 34" />
    <path d="M37 36 Q39 34 41 36" />
    <path d="M42 38 Q44 36 46 38" />
    <path d="M47 40 Q49 38 51 40" />
    <path d="M52 42 Q54 40 56 42" />
    <path d="M57 44 Q59 42 61 44" />
    <path d="M62 46 Q64 44 66 46" />
    <path d="M67 48 Q69 46 71 48" />
    <path d="M72 50 Q74 48 76 50" />
    <path d="M77 52 Q79 50 81 52" />
    <path d="M82 54 Q84 52 86 54" />
    <path d="M87 56 Q89 54 91 56" />
    <path d="M92 58 Q94 56 96 58" />
    <path d="M97 60 Q99 58 101 60" />
    <!-- Add more as needed -->
    <circle cx="2" cy="32" r="0.5"/>
    <circle cx="4" cy="34" r="0.5"/>
    <circle cx="6" cy="36" r="0.5"/>
    <circle cx="8" cy="38" r="0.5"/>
    <circle cx="10" cy="40" r="0.5"/>
    <circle cx="12" cy="42" r="0.5"/>
    <circle cx="14" cy="44" r="0.5"/>
    <circle cx="16" cy="46" r="0.5"/>
    <circle cx="18" cy="48" r="0.5"/>
    <circle cx="20" cy="50" r="0.5"/>
    <circle cx="22" cy="52" r="0.5"/>
    <circle cx="24" cy="54" r="0.5"/>
    <circle cx="26" cy="56" r="0.5"/>
    <circle cx="28" cy="58" r="0.5"/>
    <circle cx="30" cy="60" r="0.5"/>
    <circle cx="32" cy="62" r="0.5"/>
    <circle cx="34" cy="64" r="0.5"/>
    <circle cx="36" cy="66" r="0.5"/>
    <circle cx="38" cy="68" r="0.5"/>
    <circle cx="40" cy="70" r="0.5"/>
    <circle cx="42" cy="72" r="0.5"/>
    <circle cx="44" cy="74" r="0.5"/>
    <circle cx="46" cy="76" r="0.5"/>
    <circle cx="48" cy="78" r="0.5"/>
    <circle cx="50" cy="80" r="0.5"/>
    <circle cx="52" cy="82" r="0.5"/>
    <circle cx="54" cy="84" r="0.5"/>
    <circle cx="56" cy="86" r="0.5"/>
    <circle cx="58" cy="88" r="0.5"/>
    <circle cx="60" cy="90" r="0.5"/>
    <circle cx="62" cy="92" r="0.5"/>
    <circle cx="64" cy="94" r="0.5"/>
    <circle cx="66" cy="96" r="0.5"/>
    <circle cx="68" cy="98" r="0.5"/>
    <rect x="1" y="31" width="1" height="1" fill="#D0D0D0"/>
    <rect x="3" y="33" width="1" height="1" fill="#D0D0D0"/>
    <rect x="5" y="35" width="1" height="1" fill="#D0D0D0"/>
    <rect x="7" y="37" width="1" height="1" fill="#D0D0D0"/>
    <rect x="9" y="39" width="1" height="1" fill="#D0D0D0"/>
    <rect x="11" y="41" width="1" height="1" fill="#D0D0D0"/>
    <rect x="13" y="43" width="1" height="1" fill="#D0D0D0"/>
    <rect x="15" y="45" width="1" height="1" fill="#D0D0D0"/>
    <rect x="17" y="47" width="1" height="1" fill="#D0D0D0"/>
    <rect x="19" y="49" width="1" height="1" fill="#D0D0D0"/>
    <rect x="21" y="51" width="1" height="1" fill="#D0D0D0"/>
    <rect x="23" y="53" width="1" height="1" fill="#D0D0D0"/>
    <rect x="25" y="55" width="1" height="1" fill="#D0D0D0"/>
    <rect x="27" y="57" width="1" height="1" fill="#D0D0D0"/>
    <rect x="29" y="59" width="1" height="1" fill="#D0D0D0"/>
    <rect x="31" y="61" width="1" height="1" fill="#D0D0D0"/>
    <rect x="33" y="63" width="1" height="1" fill="#D0D0D0"/>
    <rect x="35" y="65" width="1" height="1" fill="#D0D0D0"/>
    <rect x="37" y="67" width="1" height="1" fill="#D0D0D0"/>
    <rect x="39" y="69" width="1" height="1" fill="#D0D0D0"/>
    <rect x="41" y="71" width="1" height="1" fill="#D0D0D0"/>
    <rect x="43" y="73" width="1" height="1" fill="#D0D0D0"/>
    <rect x="45" y="75" width="1" height="1" fill="#D0D0D0"/>
    <rect x="47" y="77" width="1" height="1" fill="#D0D0D0"/>
    <rect x="49" y="79" width="1" height="1" fill="#D0D0D0"/>
    <rect x="51" y="81" width="1" height="1" fill="#D0D0D0"/>
    <rect x="53" y="83" width="1" height="1" fill="#D0D0D0"/>
    <rect x="55" y="85" width="1" height="1" fill="#D0D0D0"/>
    <rect x="57" y="87" width="1" height="1" fill="#D0D0D0"/>
    <rect x="59" y="89" width="1" height="1" fill="#D0D0D0"/>
    <rect x="61" y="91" width="1" height="1" fill="#D0D0D0"/>
    <rect x="63" y="93" width="1" height="1" fill="#D0D0D0"/>
    <rect x="65" y="95" width="1" height="1" fill="#D0D0D0"/>
    <rect x="67" y="97" width="1" height="1" fill="#D0D0D0"/>
    <rect x="69" y="99" width="1" height="1" fill="#D0D0D0"/>
  </g>
</svg>